<?xml version="1.0" standalone="no"?>
<!DOCTYPE svg PUBLIC "-//W3C//DTD SVG 20010904//EN"
 "http://www.w3.org/TR/2001/REC-SVG-20010904/DTD/svg10.dtd">
<svg version="1.0" xmlns="http://www.w3.org/2000/svg"
 width="100.000000pt" height="100.000000pt" viewBox="0 0 100.000000 100.000000"
 preserveAspectRatio="xMidYMid meet">
<metadata>
Created by potrace 1.11, written by Peter Selinger 2001-2013
</metadata>
<g transform="translate(0.000000,100.000000) scale(0.100000,-0.100000)"
fill="#000000" stroke="none">
<path d="M160 911 c0 -28 3 -31 30 -31 34 0 40 15 10 23 -11 3 -19 11 -18 17
2 7 -3 15 -9 17 -9 3 -13 -6 -13 -26z"/>
<path d="M813 920 c-3 -11 -12 -20 -19 -20 -8 0 -14 -4 -14 -10 0 -5 14 -10
30 -10 27 0 30 3 30 30 0 34 -19 41 -27 10z"/>
<path d="M130 860 c0 -5 5 -10 10 -10 6 0 10 5 10 10 0 6 -4 10 -10 10 -5 0
-10 -4 -10 -10z"/>
<path d="M220 860 c0 -5 7 -10 15 -10 8 0 15 5 15 10 0 6 -7 10 -15 10 -8 0
-15 -4 -15 -10z"/>
<path d="M750 860 c0 -5 7 -10 15 -10 8 0 15 5 15 10 0 6 -7 10 -15 10 -8 0
-15 -4 -15 -10z"/>
<path d="M850 860 c0 -5 5 -10 10 -10 6 0 10 5 10 10 0 6 -4 10 -10 10 -5 0
-10 -4 -10 -10z"/>
<path d="M100 795 c0 -25 5 -45 10 -45 6 0 10 20 10 45 0 25 -4 45 -10 45 -5
0 -10 -20 -10 -45z"/>
<path d="M160 780 c0 -47 3 -60 15 -60 8 0 15 -7 15 -15 0 -11 12 -15 45 -15
l45 0 0 45 c0 33 -4 45 -15 45 -17 0 -20 26 -4 35 6 4 13 -2 16 -14 4 -17 13
-21 49 -21 32 0 44 4 44 15 0 11 -12 15 -45 15 -33 0 -45 4 -45 15 0 8 -7 15
-15 15 -8 0 -15 -7 -15 -15 0 -8 -7 -15 -15 -15 -8 0 -15 7 -15 15 0 10 -10
15 -30 15 l-30 0 0 -60z"/>
<path d="M720 825 c0 -11 -12 -15 -45 -15 -33 0 -45 -4 -45 -15 0 -11 12 -15
44 -15 36 0 45 4 49 21 3 12 10 18 16 14 16 -9 13 -35 -4 -35 -11 0 -15 -12
-15 -45 l0 -45 45 0 c33 0 45 4 45 15 0 8 7 15 15 15 12 0 15 13 15 60 l0 60
-30 0 c-20 0 -30 -5 -30 -15 0 -8 -7 -15 -15 -15 -8 0 -15 7 -15 15 0 8 -7 15
-15 15 -8 0 -15 -7 -15 -15z"/>
<path d="M880 795 c0 -25 5 -45 10 -45 6 0 10 20 10 45 0 25 -4 45 -10 45 -5
0 -10 -20 -10 -45z"/>
<path d="M380 765 c0 -12 20 -15 120 -15 100 0 120 3 120 15 0 13 -20 15 -120
15 -100 0 -120 -2 -120 -15z"/>
<path d="M64 705 c1 -29 5 -45 14 -45 8 0 12 16 12 45 0 31 -4 45 -13 45 -9 0
-13 -14 -13 -45z"/>
<path d="M910 705 c0 -30 4 -45 13 -45 8 0 13 16 13 45 1 32 -3 45 -12 45 -10
0 -14 -14 -14 -45z"/>
<path d="M28 543 c-2 -80 -6 -107 -16 -106 -6 2 -12 -4 -12 -12 0 -8 7 -15 15
-15 8 0 15 -6 15 -14 0 -8 8 -16 18 -18 13 -3 17 -13 17 -47 0 -27 5 -46 13
-48 8 -3 12 7 12 31 0 33 2 36 30 36 17 0 30 5 30 10 0 6 -13 10 -30 10 -20 0
-30 5 -30 15 0 8 -7 15 -15 15 -13 0 -15 21 -15 125 0 103 -3 125 -15 125 -11
0 -15 -21 -17 -107z"/>
<path d="M940 525 c0 -104 -2 -125 -15 -125 -8 0 -15 -7 -15 -15 0 -10 -10
-15 -30 -15 -16 0 -30 -4 -30 -10 0 -5 14 -10 30 -10 28 0 30 -3 30 -35 0 -19
5 -35 10 -35 10 0 15 27 11 68 -1 16 4 25 18 29 12 3 21 12 21 19 0 8 7 14 15
14 8 0 15 7 15 15 0 8 -7 15 -15 15 -12 0 -15 18 -15 105 0 87 -3 105 -15 105
-13 0 -15 -21 -15 -125z"/>
<path d="M250 605 c0 -8 -7 -15 -15 -15 -8 0 -15 -7 -15 -15 0 -8 -7 -15 -15
-15 -8 0 -15 -7 -15 -15 0 -8 -7 -15 -15 -15 -8 0 -15 -7 -15 -15 0 -8 7 -15
15 -15 8 0 15 -7 15 -15 0 -8 7 -15 15 -15 8 0 15 -7 15 -15 0 -12 13 -15 60
-15 47 0 60 3 60 15 0 8 7 15 15 15 11 0 15 12 15 45 0 33 -4 45 -15 45 -10 0
-15 10 -15 30 0 29 -2 30 -45 30 -33 0 -45 -4 -45 -15z m67 -90 c0 -8 -9 -15
-19 -15 -10 0 -18 7 -18 15 0 8 8 15 18 15 10 0 19 -7 19 -15z"/>
<path d="M660 590 c0 -20 -5 -30 -15 -30 -11 0 -15 -12 -15 -45 0 -33 4 -45
15 -45 8 0 15 -7 15 -15 0 -12 13 -15 60 -15 47 0 60 3 60 15 0 8 7 15 15 15
8 0 15 7 15 15 0 8 7 15 15 15 8 0 15 7 15 15 0 8 -7 15 -15 15 -8 0 -15 7
-15 15 0 8 -7 15 -15 15 -8 0 -15 7 -15 15 0 8 -7 15 -15 15 -8 0 -15 7 -15
15 0 11 -12 15 -45 15 -43 0 -45 -1 -45 -30z m60 -75 c0 -8 -8 -15 -18 -15
-10 0 -19 7 -19 15 0 8 9 15 19 15 10 0 18 -7 18 -15z"/>
<path d="M440 375 c0 -16 6 -25 15 -25 8 0 15 -9 15 -20 0 -16 7 -20 30 -20
23 0 30 4 30 20 0 11 7 20 15 20 9 0 15 9 15 25 0 24 -3 25 -60 25 -57 0 -60
-1 -60 -25z"/>
<path d="M160 327 c0 -17 52 -16 58 1 2 8 -7 12 -27 12 -19 0 -31 -5 -31 -13z"/>
<path d="M782 328 c7 -20 58 -23 58 -4 0 11 -10 16 -31 16 -20 0 -29 -4 -27
-12z"/>
<path d="M220 295 c0 -12 -13 -15 -60 -15 -47 0 -60 -3 -60 -15 0 -11 -12 -15
-50 -15 -38 0 -50 -4 -50 -15 0 -12 15 -15 75 -15 60 0 75 3 75 15 0 10 11 15
35 15 24 0 35 -5 35 -15 0 -8 7 -15 15 -15 8 0 15 7 15 15 0 8 7 15 15 15 8 0
15 -7 15 -15 0 -8 7 -15 15 -15 8 0 15 7 15 15 0 8 -7 15 -15 15 -10 0 -15 10
-15 30 0 27 -3 30 -30 30 -20 0 -30 -5 -30 -15z"/>
<path d="M720 280 c0 -20 -5 -30 -15 -30 -8 0 -15 -7 -15 -15 0 -8 7 -15 15
-15 8 0 15 7 15 15 0 8 7 15 15 15 8 0 15 -7 15 -15 0 -8 7 -15 15 -15 8 0 15
7 15 15 0 10 11 15 35 15 24 0 35 -5 35 -15 0 -12 15 -15 75 -15 60 0 75 3 75
15 0 11 -12 15 -50 15 -38 0 -50 4 -50 15 0 12 -13 15 -60 15 -47 0 -60 3 -60
15 0 10 -10 15 -30 15 -27 0 -30 -3 -30 -30z"/>
<path d="M470 220 c0 -27 3 -30 30 -30 27 0 30 3 30 30 0 27 -3 30 -30 30 -27
0 -30 -3 -30 -30z"/>
<path d="M160 190 c0 -27 3 -30 30 -30 27 0 30 3 30 30 0 27 -3 30 -30 30 -27
0 -30 -3 -30 -30z"/>
<path d="M317 213 c-12 -11 -8 -23 8 -23 8 0 15 7 15 15 0 16 -12 20 -23 8z"/>
<path d="M660 205 c0 -8 7 -15 15 -15 9 0 12 6 9 15 -4 8 -10 15 -15 15 -5 0
-9 -7 -9 -15z"/>
<path d="M780 190 c0 -27 3 -30 30 -30 27 0 30 3 30 30 0 27 -3 30 -30 30 -27
0 -30 -3 -30 -30z"/>
<path d="M350 174 c0 -10 16 -14 60 -14 33 0 60 4 60 10 0 12 -2 12 -67 15
-40 2 -53 -1 -53 -11z"/>
<path d="M543 183 c-31 -12 -8 -23 47 -23 47 0 60 3 60 15 0 11 -12 15 -47 14
-27 0 -54 -3 -60 -6z"/>
<path d="M100 140 c0 -5 11 -10 25 -10 14 0 25 5 25 10 0 6 -11 10 -25 10 -14
0 -25 -4 -25 -10z"/>
<path d="M220 140 c0 -5 14 -10 30 -10 17 0 30 5 30 10 0 6 -13 10 -30 10 -16
0 -30 -4 -30 -10z"/>
<path d="M720 140 c0 -5 14 -10 30 -10 17 0 30 5 30 10 0 6 -13 10 -30 10 -16
0 -30 -4 -30 -10z"/>
<path d="M850 140 c0 -5 11 -10 25 -10 14 0 25 5 25 10 0 6 -11 10 -25 10 -14
0 -25 -4 -25 -10z"/>
<path d="M30 110 c0 -5 14 -10 30 -10 17 0 30 5 30 10 0 6 -13 10 -30 10 -16
0 -30 -4 -30 -10z"/>
<path d="M280 110 c0 -5 14 -10 30 -10 17 0 30 5 30 10 0 6 -13 10 -30 10 -16
0 -30 -4 -30 -10z"/>
<path d="M660 110 c0 -5 14 -10 30 -10 17 0 30 5 30 10 0 6 -13 10 -30 10 -16
0 -30 -4 -30 -10z"/>
<path d="M910 110 c0 -5 14 -10 30 -10 17 0 30 5 30 10 0 6 -13 10 -30 10 -16
0 -30 -4 -30 -10z"/>
<path d="M2 78 c6 -18 28 -21 28 -4 0 9 -7 16 -16 16 -9 0 -14 -5 -12 -12z"/>
<path d="M350 78 c0 -10 37 -13 150 -13 113 0 150 3 150 13 0 9 -37 12 -150
12 -113 0 -150 -3 -150 -12z"/>
<path d="M970 75 c0 -8 7 -15 15 -15 8 0 15 7 15 15 0 8 -7 15 -15 15 -8 0
-15 -7 -15 -15z"/>
</g>
</svg>
